<?xml version="1.0" encoding="utf-8"?>
<!-- Generator: Adobe Illustrator 16.0.0, SVG Export Plug-In . SVG Version: 6.00 Build 0)  -->
<!DOCTYPE svg PUBLIC "-//W3C//DTD SVG 1.1//EN" "http://www.w3.org/Graphics/SVG/1.1/DTD/svg11.dtd">
<svg version="1.1" id="Layer_1" xmlns="http://www.w3.org/2000/svg" xmlns:xlink="http://www.w3.org/1999/xlink" x="0px" y="0px"
	 width="20px" height="20px" viewBox="0 0 26.609 32.05" enable-background="new 0 0 26.609 32.05" xml:space="preserve">
<g>
	<path fill="#AF6B27" d="M15.306,29.178L0.769,17.044c0,0-0.77,0.279-0.77,1.314s0.322,1.249,0.322,1.249L15.306,32.05
		c0,0-0.431-0.883-0.431-1.53S15.306,29.178,15.306,29.178z"/>
	<path fill="#AF6B27" d="M15.374,31.598c0,0.288,0.27,0.339,0.391,0.315c0.12-0.024,9.685-6.354,9.685-6.354l0.036-0.929
		l-9.886,6.553C15.598,31.183,15.374,31.309,15.374,31.598z"/>
	<path fill="#AF6B27" d="M15.299,30.664c0.131,0.153,0.241,0.162,0.349,0.112c0.107-0.051,9.232-6.288,9.232-6.288L24.886,24
		l-9.438,6.35C15.449,30.349,15.168,30.511,15.299,30.664z"/>
	<path fill="#AF6B27" d="M15.585,29.88l9.298-6.277l-0.008-0.477l-9.397,6.357c0,0-0.244,0.162-0.126,0.324
		C15.468,29.97,15.585,29.88,15.585,29.88z"/>
	<polygon fill="#AF6B27" points="24.896,21.691 15.742,27.765 1.82,16.245 1.26,16.574 15.558,28.917 25.35,22.083 	"/>
	<path fill="#AF6B27" d="M0.884,14.478l14.984,12.443c0,0-0.43-0.883-0.43-1.531s0.43-1.342,0.43-1.342L1.332,11.915
		c0,0-0.769,0.28-0.769,1.315S0.884,14.478,0.884,14.478z"/>
	<path fill="#AF6B27" d="M15.936,26.466c0,0.289,0.27,0.341,0.39,0.316c0.121-0.023,9.686-6.354,9.686-6.354l0.036-0.93
		l-9.886,6.554C16.161,26.053,15.936,26.179,15.936,26.466z"/>
	<path fill="#AF6B27" d="M15.861,25.535c0.13,0.152,0.241,0.161,0.348,0.112c0.107-0.052,9.233-6.288,9.233-6.288l0.006-0.488
		l-9.438,6.348C16.012,25.218,15.731,25.38,15.861,25.535z"/>
	<path fill="#AF6B27" d="M16.147,24.75l9.298-6.276l-0.007-0.476l-9.399,6.357c0,0-0.243,0.162-0.126,0.324
		C16.03,24.839,16.147,24.75,16.147,24.75z"/>
	<polygon fill="#AF6B27" points="25.458,16.561 16.305,22.634 2.383,11.115 1.823,11.443 16.12,23.789 25.912,16.955 	"/>
	<path fill="#AF6B27" d="M1.447,9.222L16.43,21.666c0,0-0.43-0.883-0.43-1.531c0-0.649,0.43-1.342,0.43-1.342L1.894,6.658
		c0,0-0.77,0.28-0.77,1.315C1.125,9.009,1.447,9.222,1.447,9.222z"/>
	<path fill="#AF6B27" d="M16.724,20.796c0,0-0.227,0.125-0.227,0.414s0.271,0.34,0.392,0.315c0.12-0.024,9.685-6.353,9.685-6.353
		l0.036-0.929L16.724,20.796z"/>
	<path fill="#AF6B27" d="M16.424,20.278c0.131,0.153,0.241,0.162,0.35,0.112c0.107-0.051,9.232-6.287,9.232-6.287l0.006-0.49
		l-9.437,6.35C16.575,19.962,16.293,20.125,16.424,20.278z"/>
	<path fill="#AF6B27" d="M16.709,19.496l9.298-6.279L26,12.74l-9.396,6.357c0,0-0.244,0.162-0.127,0.324
		C16.592,19.583,16.709,19.496,16.709,19.496z"/>
	<path fill="#AF6B27" d="M26.475,11.698L12.953,0L2.385,6.187l14.298,12.344L26.475,11.698z M7.2,7.52l7.044-4.185l2.67,2.282
		L9.954,9.98L7.2,7.52z M12.539,9.518L12.25,9.25l3.118-2.039l0.228,0.287L12.539,9.518z"/>
</g>
</svg>
