<?xml version="1.0" encoding="utf-8"?>
<!-- Generator: Adobe Illustrator 16.0.0, SVG Export Plug-In . SVG Version: 6.00 Build 0)  -->
<!DOCTYPE svg PUBLIC "-//W3C//DTD SVG 1.1//EN" "http://www.w3.org/Graphics/SVG/1.1/DTD/svg11.dtd">
<svg version="1.1" id="Layer_1" xmlns="http://www.w3.org/2000/svg" xmlns:xlink="http://www.w3.org/1999/xlink" x="0px" y="0px"
	 width="25px" height="25px" viewBox="0 0 32 32" enable-background="new 0 0 32 32" xml:space="preserve">
<g>
	<path fill="#FFEECF" d="M22.59,15.093l-0.938-0.53c-0.644,0.268-1.373,0.475-2.209,0.593c-0.516,0.572-1.362,0.94-2.346,0.94
		c-1.164,0-2.145-0.514-2.597-1.27c-0.661-0.167-1.291-0.419-1.874-0.74l-1.699,1.07C8.148,17.064,4.322,21.602,3.358,32h5.52
		c0.143-1.744,0.409-3.271,0.956-4.57V32h13.453v-5.063c0.383,1.429,0.672,3.108,0.833,5.063h5.508
		C28.747,21.229,25.417,17.037,22.59,15.093z M16.881,29.009c-2.521,0-4.574-2.051-4.574-4.573c0-2.521,2.053-4.574,4.574-4.574
		c2.521,0,4.573,2.054,4.573,4.574C21.454,26.958,19.4,29.009,16.881,29.009z"/>
	<path fill="#FFEECF" d="M16.881,20.479c-2.182,0-3.958,1.774-3.958,3.957s1.774,3.957,3.958,3.957c2.182,0,3.957-1.772,3.957-3.957
		C20.838,22.254,19.063,20.479,16.881,20.479z M18.661,26.957l-0.503,0.262c-0.088,0.047-0.206,0.061-0.322,0.041
		c-1.658-0.182-2.489-2.208-2.511-2.246c-0.543-1.06-0.568-2.197-0.141-2.914c0.053-0.104,0.135-0.197,0.221-0.242l0.506-0.252
		c0.194-0.1,0.433-0.021,0.532,0.176l0.269,1.049c0.049,0.244-0.002,0.445-0.236,0.564l-0.237,0.115
		c-0.13,0.066-0.161,0.047-0.25,0.039c-0.231-0.01-0.289,0.151-0.271,0.266c0.051,0.285,0.136,0.568,0.276,0.844
		c0.003,0.006,0.423,0.81,0.756,1.168c0.08,0.083,0.247,0.127,0.374-0.066c0.048-0.076,0.048-0.111,0.18-0.179l0.23-0.124
		c0.232-0.119,0.426-0.047,0.596,0.134l0.696,0.832C18.928,26.617,18.854,26.855,18.661,26.957z"/>
	<path fill="#FFEECF" d="M14.262,13.526c0.204-1.085,1.375-1.894,2.835-1.894c1.027,0,1.908,0.403,2.414,1.021
		c0.637-0.127,1.178-0.331,1.639-0.58c1.357-1.255,2.207-3.049,2.207-5.043c0-3.794-3.072-6.866-6.863-6.866
		c-3.796,0-6.868,3.073-6.868,6.866C9.625,10.042,11.563,12.601,14.262,13.526z"/>
	<path fill="#FFEECF" d="M23.973,7.418c-0.062,0.893-0.318,1.821-0.772,2.893c0.184,0,0.358-0.006,0.528-0.015
		c-0.654,1.27-1.947,2.677-4.504,3.043c-0.303-0.636-1.142-1.092-2.127-1.092c-1.245,0-2.251,0.725-2.251,1.616
		c0,0.892,1.007,1.615,2.251,1.615c0.879,0,1.639-0.364,2.01-0.891c3.791-0.442,5.381-2.792,6.043-4.532
		c0.289-0.088,0.539-0.2,0.757-0.328C26.979,9.1,27.26,8.05,27.26,7.028c0-1.537-0.529-3.162-3.469-3.387
		c-0.229-0.017-0.471-0.027-0.729-0.027C23.755,5.009,24.057,6.183,23.973,7.418z"/>
</g>
</svg>
