<?xml version="1.0" encoding="utf-8"?>
<!-- Generator: Adobe Illustrator 16.0.0, SVG Export Plug-In . SVG Version: 6.00 Build 0)  -->
<!DOCTYPE svg PUBLIC "-//W3C//DTD SVG 1.1//EN" "http://www.w3.org/Graphics/SVG/1.1/DTD/svg11.dtd">
<svg version="1.1" id="图层_1" xmlns="http://www.w3.org/2000/svg" xmlns:xlink="http://www.w3.org/1999/xlink"
	 width="36px" height="36px" viewBox="0 0 128 128"  xml:space="preserve">
<path fill="#17D198" d="M65.554,30.566c-16.276,0-29.517,13.851-29.517,30.873c0,17.025,13.244,30.874,29.517,30.874
	c16.279,0,29.526-13.849,29.526-30.874C95.076,44.417,81.833,30.566,65.554,30.566z M65.554,89.826
	c-14.967,0-27.143-12.734-27.143-28.387c0-15.653,12.175-28.387,27.143-28.387c14.971,0,27.148,12.734,27.148,28.387
	C92.702,77.092,80.521,89.826,65.554,89.826z M65.554,35.535c-13.656,0-24.769,11.62-24.769,25.904
	c0,14.285,11.11,25.904,24.769,25.904c13.662,0,24.774-11.619,24.774-25.904C90.325,47.155,79.216,35.535,65.554,35.535z
	 M65.554,82.731c-11.226,0-20.355-9.553-20.355-21.292S54.328,40.15,65.554,40.15c11.226,0,20.363,9.549,20.363,21.289
	S76.779,82.731,65.554,82.731z M34.54,48.628c0,2.75-0.883,4.791-3.34,6.277l-2.045,1.164v3.591h-3.979V56.11l-2.123-1.24
	c-2.571-1.773-3.259-3.443-3.259-6.245l0.002-17.028h2.194v16.718c0,0.579,0.446,1.042,0.999,1.042c0.545,0,0.997-0.465,0.997-1.042
	V31.601h2.2v18.385c0,0.579,0.448,1.044,0.993,1.044c0.554,0,1-0.468,1-1.044V31.601h2.202v16.718c0,0.579,0.446,1.041,1,1.041
	c0.55,0,0.996-0.465,0.996-1.041V31.601h2.158L34.54,48.628z M103.26,55.914l-4.074,0.003V34.689c0-6.996,3.863-6.996,8.047-6.996
	l0.012,32.07h-3.984V55.914z M82.521,61.439c0,9.797-7.602,17.742-16.968,17.742c-9.369,0-16.962-7.947-16.962-17.742
	c0-9.798,7.593-17.741,16.962-17.741C74.92,43.698,82.521,51.641,82.521,61.439z M25.063,63.208
	c-0.476,0.538-0.778,1.246-0.778,2.036v29.94c0,1.667,1.292,3.018,2.883,3.018c1.594,0,2.886-1.348,2.886-3.018v-29.94
	c0-0.79-0.304-1.498-0.778-2.036H25.063z M107.994,64.841c-0.09-0.591-0.349-1.112-0.718-1.53h-4.053
	c-0.466,0.521-0.761,1.214-0.761,1.983v0.38c-0.007,0.094-0.025,0.185-0.025,0.278v29.229c0,1.667,1.292,3.019,2.883,3.019
	c1.594,0,2.886-1.349,2.886-3.019V65.952C108.206,65.56,108.13,65.186,107.994,64.841z"/>
</svg>
