<?xml version="1.0" encoding="utf-8"?>
<!-- Generator: Adobe Illustrator 16.0.0, SVG Export Plug-In . SVG Version: 6.00 Build 0)  -->
<!DOCTYPE svg PUBLIC "-//W3C//DTD SVG 1.1//EN" "http://www.w3.org/Graphics/SVG/1.1/DTD/svg11.dtd">
<svg version="1.1" id="图层_1" xmlns="http://www.w3.org/2000/svg" xmlns:xlink="http://www.w3.org/1999/xlink" x="0px" y="0px"
	 width="36px" height="36px" viewBox="0 0 36 36" enable-background="new 0 0 36 36" xml:space="preserve">
<path fill="#17D198" d="M18.635,4.19c-6.675,0-12.107,5.695-12.107,12.693c0,7.002,5.433,12.695,12.107,12.695
	c6.681,0,12.115-5.693,12.115-12.695C30.75,9.885,25.315,4.19,18.635,4.19z M18.635,28.556c-6.138,0-11.133-5.236-11.133-11.673
	c0-6.434,4.996-11.671,11.133-11.671c6.143,0,11.139,5.237,11.139,11.671C29.773,23.317,24.776,28.556,18.635,28.556z M18.635,6.234
	c-5.6,0-10.16,4.777-10.16,10.649c0,5.874,4.558,10.653,10.16,10.653c5.606,0,10.166-4.779,10.166-10.653
	C28.801,11.011,24.242,6.234,18.635,6.234z M18.635,25.638c-4.604,0-8.348-3.928-8.348-8.755c0-4.826,3.744-8.752,8.348-8.752
	c4.606,0,8.356,3.926,8.356,8.752C26.992,21.71,23.242,25.638,18.635,25.638z M5.914,11.617c0,1.13-0.363,1.969-1.37,2.58
	l-0.839,0.479v1.477H2.072v-1.459l-0.871-0.51c-1.055-0.729-1.338-1.415-1.338-2.568V4.614h0.9v6.874
	c0,0.239,0.183,0.429,0.411,0.429c0.224,0,0.409-0.191,0.409-0.429V4.615h0.903v7.56c0,0.238,0.184,0.429,0.407,0.429
	c0.227,0,0.41-0.192,0.41-0.429v-7.56h0.904v6.875c0,0.238,0.182,0.428,0.409,0.428c0.227,0,0.41-0.19,0.41-0.428V4.615h0.885
	L5.914,11.617z M34.107,14.611l-1.673,0.002V5.885c0-2.876,1.585-2.876,3.301-2.876l0.005,13.187h-1.633V14.611L34.107,14.611z
	 M25.599,16.883c0,4.03-3.12,7.298-6.964,7.298c-3.842,0-6.958-3.268-6.958-7.298c0-1.316,0.323-2.535,0.919-3.624
	c1.224-2.236,3.457-3.669,6.038-3.669C22.48,9.59,25.599,12.856,25.599,16.883z M2.025,17.611c-0.195,0.221-0.318,0.513-0.318,0.838
	v12.31C1.708,31.444,2.237,32,2.89,32c0.654,0,1.184-0.554,1.184-1.241v-12.31c0-0.325-0.125-0.617-0.319-0.838H2.025z
	 M36.047,18.283c-0.037-0.244-0.141-0.459-0.293-0.631H34.09c-0.189,0.215-0.313,0.498-0.313,0.816v0.155
	c-0.001,0.039-0.01,0.077-0.01,0.112v12.021c0,0.687,0.531,1.241,1.182,1.241c0.654,0,1.188-0.557,1.188-1.241v-12.02
	C36.137,18.579,36.104,18.426,36.047,18.283z"/>
</svg>
