<?xml version="1.0" encoding="utf-8"?>
<!-- Generator: Adobe Illustrator 16.0.0, SVG Export Plug-In . SVG Version: 6.00 Build 0)  -->
<!DOCTYPE svg PUBLIC "-//W3C//DTD SVG 1.1//EN" "http://www.w3.org/Graphics/SVG/1.1/DTD/svg11.dtd">
<svg version="1.1" id="Capa_1" xmlns="http://www.w3.org/2000/svg" xmlns:xlink="http://www.w3.org/1999/xlink" x="0px" y="0px"
	 width="36px" height="36px" viewBox="0 0 300 300" enable-background="new 0 0 300 300" xml:space="preserve">
<g>
	<path fill="#876046" d="M184,39.2c-58.7-7.3-140.1,2.5-165.4,65.9C8,131.5,5.7,169,29.8,190c28.3,24.6,65.6,19.7,100.6,21.1l0,0
		c0.8,16.101,5.6,33.2,10.5,48.2c1.7,5.3,7.9,5.5,11,1.4c6.199-8.2,8.899-18.8,11.5-28.601c1.3-5,4.899-12.8,4.6-18.699
		c0.7,0,1.3,0,2.1-0.301c47-17.3,114.2-0.399,122.2-66.5C300,83.7,238.1,45.9,184,39.2z M274.5,166.8
		c-14.7,33.2-78.5,23-107.7,34.101c-3.1,1.199-4.3,4-4.2,6.6c-7.3,1.3-8.1,10.4-9.6,16.5c-1.4,5.5-2.7,11.3-4.6,16.9
		c-3.2-12.801-5.9-25.801-11.1-37.601c-1.2-2.7-4.5-2.2-6.1-0.3c-20.3-4.7-40-5-60.6-7.9C9.5,186.7,18.5,119.4,46.9,85.3
		c32.5-39,98.5-40.1,144.2-32.4C243,61.7,300.6,107.8,274.5,166.8z"/>
	<path fill="#876046" d="M101.3,100.6c-1.6-4.3-7.4-5.6-10-1.3c-5,8.3-3.6,21.5-4.1,30.8c-0.3,5.1-0.7,10.6-1,16.1
		c-5.1,0.8-10.1,1.2-15.3,1.6c0-4.1-0.1-8.2-0.1-12.3c0-6.7,0.3-13.5,0.6-20.2c0.1-2.9,0.4-5.8,0.9-8.7c0.8-4.3,1.8-3.1-0.9-1.8
		c3.4-1.7,3.6-7.6,0-9.3c-21.3-9.6-12.4,67.3-11.7,77c0.5,7,10.5,7,10.8,0c0.3-5.1,0.3-10.1,0.3-15.2c5,0.3,10.1,0.4,15.2,0.2
		c0.2,5.5,0.9,10.8,2.5,15.7c0.6,1.899,2.2,3.899,4.3,4.3c2.1,0.4,4.4,0.3,6.1-1c1.2-0.9,1.3-2.2,0.8-3.1
		c1.1-3.9,0.3-7.801,0.1-12.2c-0.2-8.5,0.1-17.1,0.5-25.6C101.1,125.1,105.1,110.6,101.3,100.6z"/>
	<path fill="#876046" d="M136.1,101.6c-0.1-0.2-0.3-0.4-0.4-0.6c-1.7-2.3-3.6-2.9-6.3-2.6c-3.2,0.4-6.5,0.5-9.8,0.7
		c-1.6-0.9-3.9-0.4-4.7,1.4c-1.5,1.3-1.8,3.5-1.1,5.2c-3.6,22.5-3.9,46.1-4.1,68.7c0,3.699,2.9,5.899,6.2,6.199
		c8.5,0.9,19.8-0.699,19.1-11.699c-0.2-3.4-3.7-5.801-6.9-4c-2.4,1.399-4,2.399-5.8,2.899c0.1-4,0.2-8,0.4-12
		c1.4,0.2,2.8,0.3,4.1,0.5c2.8,0.4,4.7-0.3,6.4-2.6l0.1-0.101c1-1.3,1-4.1,0-5.399l-0.1-0.1c-1.7-2.2-3.6-3-6.4-2.6
		c-1.2,0.2-2.5,0.3-3.8,0.4c0.4-12.5,0.5-25-0.9-37.2c2.4,0.1,4.9,0.2,7.2,0.6c2.7,0.4,4.7-0.3,6.3-2.6c0.1-0.2,0.3-0.4,0.4-0.6
		C136.9,105,136.9,102.8,136.1,101.6z"/>
	<path fill="#876046" d="M166.3,163.6c-2.6-0.8-5.3-1.199-8-1.699c-0.399-19.3-1.7-38.9-4-58c-0.6-5.2-7.5-5.2-8.1,0
		c-2.3,20.9-0.6,42.4-0.6,63.3c0,2.899,2,5.399,4.7,6.2c5.4,1.5,10.4,2.699,15.9,1.1C171.8,172.9,171.6,165.2,166.3,163.6z"/>
	<path fill="#876046" d="M194.6,167.9c-1.3,0.6-2.399,1.399-3.5,1.899c0.101-21.8,0.7-43.9-4.5-65.2c-1-4.2-7.6-3.3-7.5,1
		c0.7,23.6-0.399,47-0.8,70.6c0,3,2,5.2,4.7,6.2c8,3,15.5,1.3,19.1-7C204.3,170.4,199.9,165.4,194.6,167.9z"/>
	<path fill="#876046" d="M231.7,108c-3.9-5.3-12-2-11.8,3.2c-0.2,0-0.301,0-0.601,0c-2.8-0.1-4.1,2.4-5.3,4.4
		c-3.9,6.7-5.8,15.2-7.6,22.6c-2.9,11.9-6.301,31.8,6.5,39.2C227.7,186,237.5,166.6,239.1,155.3C241.2,141.3,240.5,119.9,231.7,108z
		 M225.8,158.4c-0.6,2.5-4.7,11.399-7.8,6.5c-5-8,0.1-24.2,2-32.5c1-4.3,2.1-8.6,3.3-12.9c0-0.1,0-0.2,0.101-0.3
		c2.8,7,3.5,15.5,3.8,22.5C227.5,147.2,227.1,152.9,225.8,158.4z"/>
</g>
</svg>
