<?xml version="1.0" encoding="utf-8"?>
<!-- Generator: Adobe Illustrator 16.0.0, SVG Export Plug-In . SVG Version: 6.00 Build 0)  -->
<!DOCTYPE svg PUBLIC "-//W3C//DTD SVG 1.1//EN" "http://www.w3.org/Graphics/SVG/1.1/DTD/svg11.dtd">
<svg version="1.1" id="Layer_1" xmlns="http://www.w3.org/2000/svg" xmlns:xlink="http://www.w3.org/1999/xlink" x="0px" y="0px"
	 width="36px" height="36px" viewBox="0 0 36 36" enable-background="new 0 0 36 36" xml:space="preserve">
<g>
	<path fill="#AA872E" d="M30.38,18.968H5.62c-0.199,0-0.36,0.161-0.36,0.36v14.087H3.149c-0.199,0-0.36,0.161-0.36,0.36v0.971
		c0,0.199,0.161,0.36,0.36,0.36h29.701c0.198,0,0.36-0.161,0.36-0.36v-0.971c0-0.199-0.162-0.36-0.36-0.36h-2.11V19.328
		C30.74,19.129,30.578,18.968,30.38,18.968z M10.268,28.904c0,0.199-0.161,0.36-0.36,0.36H7.509c-0.199,0-0.36-0.161-0.36-0.36
		v-2.398c0-0.199,0.161-0.359,0.36-0.359h2.399c0.199,0,0.36,0.16,0.36,0.359V28.904z M10.268,23.568c0,0.199-0.161,0.36-0.36,0.36
		H7.509c-0.199,0-0.36-0.161-0.36-0.36V21.17c0-0.199,0.161-0.359,0.36-0.359h2.399c0.199,0,0.36,0.16,0.36,0.359V23.568z
		 M14.914,28.904c0,0.199-0.161,0.36-0.36,0.36h-2.399c-0.199,0-0.36-0.161-0.36-0.36v-2.398c0-0.199,0.161-0.359,0.36-0.359h2.399
		c0.199,0,0.36,0.16,0.36,0.359V28.904z M14.914,23.568c0,0.199-0.161,0.36-0.36,0.36h-2.399c-0.199,0-0.36-0.161-0.36-0.36V21.17
		c0-0.199,0.161-0.359,0.36-0.359h2.399c0.199,0,0.36,0.16,0.36,0.359V23.568z M19.56,32.246c0,0.199-0.161,0.36-0.36,0.36h-2.398
		c-0.199,0-0.36-0.161-0.36-0.36v-5.74c0-0.199,0.161-0.359,0.36-0.359h2.398c0.199,0,0.36,0.16,0.36,0.359V32.246z M19.56,23.568
		c0,0.199-0.161,0.36-0.36,0.36h-2.398c-0.199,0-0.36-0.161-0.36-0.36V21.17c0-0.199,0.161-0.359,0.36-0.359h2.398
		c0.199,0,0.36,0.16,0.36,0.359V23.568z M24.205,28.904c0,0.199-0.161,0.36-0.359,0.36h-2.399c-0.199,0-0.36-0.161-0.36-0.36v-2.398
		c0-0.199,0.161-0.359,0.36-0.359h2.399c0.198,0,0.359,0.16,0.359,0.359V28.904z M24.205,23.568c0,0.199-0.161,0.36-0.359,0.36
		h-2.399c-0.199,0-0.36-0.161-0.36-0.36V21.17c0-0.199,0.161-0.359,0.36-0.359h2.399c0.198,0,0.359,0.16,0.359,0.359V23.568z
		 M28.851,28.904c0,0.199-0.161,0.36-0.36,0.36h-2.398c-0.199,0-0.359-0.161-0.359-0.36v-2.398c0-0.199,0.16-0.359,0.359-0.359
		h2.398c0.199,0,0.36,0.16,0.36,0.359V28.904z M28.851,23.568c0,0.199-0.161,0.36-0.36,0.36h-2.398c-0.199,0-0.359-0.161-0.359-0.36
		V21.17c0-0.199,0.16-0.359,0.359-0.359h2.398c0.199,0,0.36,0.16,0.36,0.359V23.568z"/>
	<path fill="#AA872E" d="M1.426,18.073h33.148c0.31,0,0.475-0.366,0.27-0.598L27.32,8.948c-0.068-0.078-0.166-0.122-0.27-0.122
		H14.296c-0.199,0-0.36-0.161-0.36-0.36V6.048c0-0.199-0.161-0.36-0.36-0.36h-1.752c-0.199,0-0.36,0.161-0.36,0.36v2.418
		c0,0.199-0.161,0.36-0.36,0.36H8.95c-0.103,0-0.202,0.044-0.27,0.122l-7.523,8.526C0.951,17.707,1.116,18.073,1.426,18.073z"/>
</g>
</svg>
