<?xml version="1.0" encoding="utf-8"?>
<!-- Generator: Adobe Illustrator 16.0.0, SVG Export Plug-In . SVG Version: 6.00 Build 0)  -->
<!DOCTYPE svg PUBLIC "-//W3C//DTD SVG 1.1//EN" "http://www.w3.org/Graphics/SVG/1.1/DTD/svg11.dtd">
<svg version="1.1" id="图层_1" xmlns="http://www.w3.org/2000/svg" xmlns:xlink="http://www.w3.org/1999/xlink" x="0px" y="0px"
	 width="36px" height="36px" viewBox="0 0 36 36" enable-background="new 0 0 36 36" xml:space="preserve">
<path fill="#8E0000" d="M21.595,29.695C14.068,30.996,6.919,26,5.628,18.535C4.381,11.325,9.058,4.45,16.162,2.817
	c-0.093,0.014-0.186,0.024-0.279,0.041C8.043,4.214,2.786,11.669,4.142,19.51c1.356,7.841,8.811,13.098,16.651,11.742
	c5.659-0.979,9.972-5.136,11.424-10.32C30.551,25.361,26.627,28.824,21.595,29.695z"/>
<path fill="#8E0000" d="M18.119,10.353c0,0-4.369-4.215-0.46-5.671c0,0,1.073-0.996,3.218,1.15c0,0,0.767,0.766,2.989-1.227
	c0,0,3.065-0.689,2.835,1.916c0,0,0.154,1.073,1.533,1.303c0,0,2.376,0.92,0.077,3.295c0,0,0.46-2.069-1.15-2.376
	c0,0-1.992,0.153-1.992-0.23c0,0,0.919-2.375-0.536-2.835c0,0-0.767-0.23-2.605,1.303c0,0-1.227,0.997-3.296-0.23
	c0,0-0.92,0.077-1.15,1.609C17.582,8.361,17.735,10.2,18.119,10.353z"/>
<polygon fill="#8E0000" points="20.877,12.729 20.341,8.054 21.49,8.208 "/>
<polygon fill="#8E0000" points="24.709,8.821 22.027,12.576 25.169,9.28 "/>
<path fill="#8E0000" d="M10.54,9.88c-3.594,1.688-5.027,6.208-3.2,10.097l13.014-6.112C18.527,9.977,14.133,8.193,10.54,9.88z
	 M11.509,10.323c3.052-1.434,6.785,0.082,8.336,3.385L8.791,18.9C7.239,15.597,8.457,11.757,11.509,10.323z"/>
<path fill="#8E0000" d="M10.225,16.484c0,0-1.457,1.686-1.839,0.229C8.386,16.714,8.616,15.488,10.225,16.484z"/>
<path fill="#8E0000" d="M8.706,14.188c0,0,0.766-0.984,1.74,0.639C10.446,14.827,8.378,15.657,8.706,14.188"/>
<path fill="#8E0000" d="M10.042,11.733c0,0,1.125-0.537,1.27,1.351C11.313,13.084,9.092,12.901,10.042,11.733"/>
<path fill="#8E0000" d="M13.066,10.582c0,0,1.1,0.589-0.336,1.823C12.73,12.405,11.563,10.507,13.066,10.582"/>
<path fill="#8E0000" d="M15.918,10.788c0,0,0.941,0.819-0.733,1.703C15.185,12.491,14.468,10.381,15.918,10.788"/>
<path fill="#8E0000" d="M18.364,12.521c0,0,0.224,1.227-1.636,0.873C16.729,13.394,17.485,11.298,18.364,12.521"/>
<path fill="#8E0000" d="M10.915,17.404l5.594-2.222c0,0-1.149-2.606-4.138-0.997C12.371,14.185,10.455,14.722,10.915,17.404z"/>
<path fill="#8E0000" d="M21.903,18.303c0,0-1.839-2.376-4.138-1.073l-1.839,2.146c0,0-1.161,0.145-2.79,0.243
	c-1.117,0.188-1.764,0.629-1.963,0.786c-0.791,1.13-1.62,3.32,2.454,4.642c0,0,0.843-0.076,1.533,1.303c0,0,1.686,3.602,4.444,1.609
	c0,0,1.764-0.689,1.379-3.142c0,0-0.152-2.452,0.308-2.376C21.29,22.441,22.67,20.295,21.903,18.303z M18.531,22.287
	c0,0-0.689,0,0.153,0.997c0,0,3.372,2.912-0.153,4.062c0,0-3.219,0.767-1.686-3.448c0,0,0.077-0.536-0.23-0.46
	c0,0-2.453,2.683-4.522,0.077c0,0-0.536-2.683,1.839-3.219c0,0,0.689-1.149,2.759,1.686c0,0,0.92,0.229,0.843-0.689
	c0,0-1.456-1.456,0.46-3.296c0,0,2.682-1.609,3.755,1.763C21.75,19.759,21.596,23.131,18.531,22.287z"/>
<path fill="#8E0000" d="M27.496,11.455c-2.332,0-4.305,1.534-4.966,3.648c0.724-1.622,2.349-2.753,4.239-2.753
	c2.564,0,4.643,2.079,4.643,4.643c0,2.564-2.078,4.644-4.643,4.644c-0.455,0-0.895-0.068-1.309-0.19
	c0.625,0.267,1.313,0.414,2.035,0.414c2.874,0,5.203-2.329,5.203-5.203C32.699,13.784,30.37,11.455,27.496,11.455z"/>
<path fill="#8E0000" d="M28.279,12.294c0,0,1.398,0.615,1.623,1.51c0,0,0.615,0.28-1.119,1.958c0,0-0.225,0.279,0.279,0.671
	c0,0,1.398-0.168,1.51,0.167c0,0,1.008,0.56,0.729,1.846l0.559-2.406l-0.783-1.958C31.076,14.084,29.23,11.343,28.279,12.294z"/>
<path fill="#8E0000" d="M27.775,15.035c0,0-0.502-2.35,0.615-1.958C28.391,13.077,29.846,13.524,27.775,15.035z"/>
<path fill="#8E0000" d="M26.492,15.03c0,0-2.191-0.988-1.213-1.657C25.279,13.373,26.502,12.468,26.492,15.03z"/>
<path fill="#8E0000" d="M25.038,16.465c0,0-2.336,0.565-1.974-0.564C23.064,15.901,23.473,14.436,25.038,16.465z"/>
<path fill="#8E0000" d="M25.696,17.761c0,0,0.375,2.374-0.722,1.922C24.975,19.684,23.547,19.157,25.696,17.761z"/>
<path fill="#8E0000" d="M27.352,18.204c0,0,1.885,1.49,0.773,1.902C28.125,20.105,26.72,20.688,27.352,18.204z"/>
<path fill="#8E0000" d="M28.835,17.251c0,0,2.386-0.289,1.894,0.79C30.729,18.041,30.151,19.449,28.835,17.251z"/>
</svg>
