<?xml version="1.0" encoding="utf-8"?>
<!-- Generator: Adobe Illustrator 16.0.0, SVG Export Plug-In . SVG Version: 6.00 Build 0)  -->
<!DOCTYPE svg PUBLIC "-//W3C//DTD SVG 1.1//EN" "http://www.w3.org/Graphics/SVG/1.1/DTD/svg11.dtd">
<svg version="1.1" id="Layer_3" xmlns="http://www.w3.org/2000/svg" xmlns:xlink="http://www.w3.org/1999/xlink" x="0px" y="0px"
	 width="126px" height="126px" viewBox="0 0 126 126" enable-background="new 0 0 126 126" xml:space="preserve">
<g>
	<circle fill="#FFEECF" cx="42.438" cy="30.407" r="8.472"/>
	<circle fill="#FFEECF" cx="11.389" cy="59.548" r="5.414"/>
	<circle fill="#FFEECF" cx="83.563" cy="30.407" r="8.472"/>
	<path fill="#FFEECF" d="M120.559,67.823c-0.082-0.046-0.168-0.079-0.254-0.111c-0.902-0.537-3.451-2.228-4.371-2.446
		c-0.004-0.002-0.011-0.002-0.015-0.005l-1.308,1.374l-1.348-1.357c-0.539,0.132-6.963,3.892-9.556,1.63
		c0.813-0.947,1.054-2.317,0.494-3.524c-4.772-10.337-8.542-18.5-14.97-22.442c-0.168-0.104-0.344-0.183-0.521-0.252
		c-0.943-0.623-2.003-1.079-3.083-1.338c-0.006-0.001-0.015-0.002-0.021-0.004l-2.049,2.149l-2.109-2.125
		c-0.84,0.206-3.1,1.321-3.389,1.498c-0.346,0.211-0.687,0.425-1.023,0.644c-0.863,0.459-8.604,4.893-14.007,18.501
		c-5.251-13.198-12.699-17.752-13.906-18.42c-1.032-0.667-1.972-1.22-2.133-1.261c-0.771-0.431-1.601-0.757-2.441-0.962
		l-2.111,2.125l-2.046-2.149c-0.008,0.002-0.016,0.002-0.021,0.004c-1.08,0.259-2.139,0.715-3.084,1.338
		c-0.179,0.07-0.354,0.148-0.522,0.252c-6.426,3.942-10.197,12.105-14.969,22.441c-0.56,1.207-0.319,2.577,0.494,3.524
		c-2.593,2.262-9.017-1.498-9.555-1.631l-1.348,1.358l-1.309-1.374c-0.004,0.002-0.009,0.004-0.013,0.004
		c-0.92,0.221-3.47,1.91-4.372,2.447c-0.086,0.033-0.172,0.064-0.255,0.111c-0.19,0.109-4.687,2.761-4.687,10.527
		c0,1.063,0.861,1.924,1.924,1.924c1.064,0,1.926-0.861,1.926-1.924c0-2.566,0.601-4.297,1.243-5.42v2.731L3.726,87.779h2.398
		l0.002,13.801c0,1.372,1.112,2.484,2.483,2.484c1.372,0,2.484-1.112,2.484-2.484l-0.002-13.801h0.354v13.801
		c0,1.372,1.112,2.484,2.482,2.484c1.375,0,2.485-1.112,2.485-2.484l0.002-13.801h2.749L16.93,75.626v-3.565
		c0.777,0.285,1.606,0.465,2.488,0.465c1.843,0,3.928-0.789,6.331-3.084c0.508-0.485,0.715-1.164,0.623-1.81
		c0.592-0.327,1.092-0.83,1.396-1.491c2.131-4.614,4.042-8.746,6-12.098v11.395c0,0.885,0.173,1.709,0.472,2.47
		c-0.021,0.17-0.038,0.343-0.038,0.521l0.004,31.496c0,2.146,1.739,3.887,3.886,3.887s3.888-1.74,3.888-3.887l-0.002-27.031
		c0.153,0.008,0.308,0.021,0.462,0.021c0.03,0,0.061-0.003,0.089-0.003v27.014c0,2.146,1.741,3.887,3.888,3.887
		c0.002,0,0.002,0,0.002,0c2.145,0,3.886-1.74,3.886-3.887l0.002-31.303c0.51-0.944,0.806-2.012,0.806-3.184V53.494
		c0.016,0.043,0.01-0.418,0.006-1.179c2.024,2.554,4.323,6.285,6.257,11.592c0.494,1.354,1.773,2.196,3.137,2.196
		c0.378,0,0.766-0.065,1.143-0.203c0.568-0.207,1.036-0.563,1.398-0.996c0.359,0.418,0.816,0.76,1.371,0.962
		c0.376,0.138,0.763,0.202,1.144,0.202c1.361,0,2.641-0.84,3.135-2.195c1.814-4.982,3.962-8.581,5.904-11.122
		c0.115,0.292,0.197,0.6,0.225,0.925c0.021-0.06,0.04-0.125,0.061-0.184v7.136l-4.346,28.365c1.626,0.808,3.369,1.366,5.154,1.737
		v9.189c0,2.146,1.738,3.887,3.886,3.887c0,0,0,0,0.002,0c2.146,0,3.886-1.74,3.886-3.887v-8.594
		c0.187-0.008,0.368-0.016,0.553-0.024l-0.002,8.618c0,2.146,1.74,3.887,3.889,3.887c2.146,0,3.886-1.74,3.886-3.887l0.002-9.613
		c3.085-0.632,5.11-1.313,5.11-1.313l-4.676-29.446V54.04c1.959,3.352,3.869,7.484,6,12.099c0.305,0.66,0.805,1.163,1.396,1.49
		c-0.091,0.646,0.116,1.324,0.624,1.809c2.402,2.295,4.488,3.086,6.33,3.086c0.882,0,1.711-0.182,2.488-0.467v3.567l-2.233,12.153
		h2.749v13.8c0,1.372,1.112,2.483,2.484,2.483c1.373,0,2.484-1.111,2.484-2.483v-13.8h0.354l-0.002,13.8
		c0,1.372,1.11,2.483,2.483,2.483c1.371,0,2.482-1.111,2.482-2.483l0.002-13.8h2.398l-2.121-12.119v-2.732
		c0.643,1.124,1.244,2.854,1.244,5.42c0,1.063,0.861,1.926,1.926,1.926c1.063,0,1.924-0.862,1.924-1.926
		C125.246,70.583,120.75,67.932,120.559,67.823z"/>
	<circle fill="#FFEECF" cx="114.611" cy="59.548" r="5.414"/>
</g>
</svg>
