<?xml version="1.0" encoding="utf-8"?>
<!-- Generator: Adobe Illustrator 16.0.0, SVG Export Plug-In . SVG Version: 6.00 Build 0)  -->
<!DOCTYPE svg PUBLIC "-//W3C//DTD SVG 1.1//EN" "http://www.w3.org/Graphics/SVG/1.1/DTD/svg11.dtd">
<svg version="1.1" id="图层_1" xmlns="http://www.w3.org/2000/svg" xmlns:xlink="http://www.w3.org/1999/xlink" x="0px" y="0px"
	 width="36px" height="36px" viewBox="0 0 36 36" enable-background="new 0 0 36 36" xml:space="preserve">
<path fill="#6B4226" d="M18,4.979c7.94,0,14.401,6.46,14.401,14.4c0,7.939-6.461,14.4-14.401,14.4s-14.4-6.461-14.4-14.4
	C3.6,11.438,10.06,4.979,18,4.979 M18,3.378c-8.836,0-16,7.164-16,16c0,8.836,7.164,16,16,16s16-7.164,16-16
	C34,10.542,26.836,3.378,18,3.378z"/>
<path fill="#6B4226" d="M12,19.679c-1.268,0-2.3-1.032-2.3-2.3c0-1.268,1.032-2.3,2.3-2.3s2.3,1.032,2.3,2.3
	C14.3,18.646,13.268,19.679,12,19.679z M12,16.679c-0.387,0-0.7,0.313-0.701,0.7c0,0.387,0.313,0.7,0.7,0.701c0,0,0,0,0.001,0
	c0.387,0,0.7-0.314,0.7-0.701C12.699,16.992,12.386,16.679,12,16.679z M25,20.179c-0.213,0.001-0.416-0.083-0.566-0.233l-2-2
	c-0.311-0.312-0.311-0.818,0-1.13l2-2c0.32-0.305,0.826-0.292,1.131,0.028c0.295,0.309,0.295,0.793,0.002,1.102l-1.437,1.434
	l1.437,1.434c0.313,0.313,0.313,0.819,0,1.132C25.416,20.095,25.213,20.18,25,20.179z M18,27.658c-2.096,0-3.8-1.688-3.8-3.76
	c0-0.441,0.358-0.799,0.8-0.799h6c0.441,0,0.8,0.357,0.8,0.799C21.8,25.971,20.096,27.658,18,27.658z M15.958,24.701
	c0.324,0.794,1.118,1.355,2.042,1.355s1.718-0.562,2.042-1.357h-4.084V24.701z"/>
</svg>
