<?xml version="1.0" encoding="utf-8"?>
<!-- Generator: Adobe Illustrator 16.0.0, SVG Export Plug-In . SVG Version: 6.00 Build 0)  -->
<!DOCTYPE svg PUBLIC "-//W3C//DTD SVG 1.1//EN" "http://www.w3.org/Graphics/SVG/1.1/DTD/svg11.dtd">
<svg version="1.1" id="Capa_1" xmlns="http://www.w3.org/2000/svg" xmlns:xlink="http://www.w3.org/1999/xlink" x="0px" y="0px"
	 width="20px" height="20px" viewBox="0 0 48 48" enable-background="new 0 0 48 48" xml:space="preserve">
<g id="more">
	<g>
		<path fill="#156B4C" d="M10.091,19.364c-2.558,0-4.636,2.079-4.636,4.636s2.079,4.637,4.636,4.637s4.636-2.079,4.636-4.637
			S12.648,19.364,10.091,19.364z M10.091,26.314c-1.279,0-2.315-1.035-2.315-2.314c0-1.279,1.036-2.315,2.315-2.315
			s2.315,1.036,2.315,2.315C12.406,25.279,11.37,26.314,10.091,26.314z M37.909,19.364c-2.558,0-4.637,2.079-4.637,4.636
			s2.079,4.637,4.637,4.637s4.636-2.079,4.636-4.637S40.467,19.364,37.909,19.364z M37.909,26.314c-1.278,0-2.315-1.035-2.315-2.314
			c0-1.279,1.037-2.315,2.315-2.315s2.315,1.036,2.315,2.315C40.225,25.279,39.188,26.314,37.909,26.314z M24,19.364
			c-2.558,0-4.636,2.079-4.636,4.636s2.079,4.637,4.636,4.637s4.637-2.079,4.637-4.637S26.558,19.364,24,19.364z M24,26.314
			c-1.279,0-2.315-1.035-2.315-2.314c0-1.279,1.036-2.315,2.315-2.315c1.279,0,2.314,1.036,2.314,2.315
			C26.314,25.279,25.279,26.314,24,26.314z"/>
	</g>
</g>
</svg>
