<?xml version="1.0" encoding="utf-8"?>
<!-- Generator: Adobe Illustrator 16.0.0, SVG Export Plug-In . SVG Version: 6.00 Build 0)  -->
<!DOCTYPE svg PUBLIC "-//W3C//DTD SVG 1.1//EN" "http://www.w3.org/Graphics/SVG/1.1/DTD/svg11.dtd">
<svg version="1.1" id="Layer_1" xmlns="http://www.w3.org/2000/svg" xmlns:xlink="http://www.w3.org/1999/xlink" x="0px" y="0px"
	 width="36px" height="36px" viewBox="0 0 36 36" enable-background="new 0 0 36 36" xml:space="preserve">
<g id="news">
	<path fill="#4E9EF4" d="M32.625,0H7.875C6.011,0,4.5,1.51,4.5,3.375v2.25H3.375C1.511,5.625,0,7.135,0,9v22.5
		C0,33.984,2.015,36,4.5,36h27c2.484,0,4.5-2.016,4.5-4.5V3.375C36,1.51,34.488,0,32.625,0z M33.75,31.5c0,1.24-1.01,2.25-2.25,2.25
		h-27c-1.241,0-2.25-1.01-2.25-2.25V9c0-0.622,0.504-1.125,1.125-1.125H4.5v22.5c0,0.622,0.503,1.125,1.125,1.125
		c0.623,0,1.125-0.503,1.125-1.125v-27c0-0.622,0.504-1.125,1.126-1.125h24.75c0.62,0,1.125,0.504,1.125,1.125V31.5H33.75z"/>
	<path fill="#4E9EF4" d="M21.935,14.63h9c0.312,0,0.563-0.252,0.563-0.563c0-0.311-0.252-0.563-0.563-0.563h-9
		c-0.31,0-0.563,0.252-0.563,0.563C21.372,14.378,21.625,14.63,21.935,14.63z"/>
	<path fill="#4E9EF4" d="M21.935,11.256h9c0.312,0,0.563-0.252,0.563-0.563c0-0.311-0.252-0.563-0.563-0.563h-9
		c-0.31,0-0.563,0.252-0.563,0.563C21.372,11.004,21.625,11.256,21.935,11.256z"/>
	<path fill="#4E9EF4" d="M21.935,7.88h9c0.312,0,0.563-0.252,0.563-0.563c0-0.311-0.252-0.562-0.563-0.562h-9
		c-0.31,0-0.563,0.252-0.563,0.563C21.372,7.629,21.625,7.88,21.935,7.88z"/>
	<path fill="#4E9EF4" d="M18.563,30.379h-9C9.252,30.379,9,30.633,9,30.941c0,0.313,0.252,0.563,0.563,0.563h9
		c0.311,0,0.563-0.251,0.563-0.563C19.125,30.633,18.873,30.379,18.563,30.379z"/>
	<path fill="#4E9EF4" d="M18.563,27.005h-9C9.252,27.005,9,27.258,9,27.567c0,0.312,0.252,0.563,0.563,0.563h9
		c0.311,0,0.563-0.252,0.563-0.563C19.125,27.258,18.873,27.005,18.563,27.005z"/>
	<path fill="#4E9EF4" d="M18.563,23.629h-9C9.252,23.629,9,23.883,9,24.191c0,0.313,0.252,0.563,0.563,0.563h9
		c0.311,0,0.563-0.251,0.563-0.563C19.125,23.883,18.873,23.629,18.563,23.629z"/>
	<path fill="#4E9EF4" d="M30.938,30.379h-9c-0.313,0-0.563,0.254-0.563,0.563c0,0.313,0.25,0.563,0.563,0.563h9
		c0.309,0,0.563-0.251,0.563-0.563C31.5,30.633,31.246,30.379,30.938,30.379z"/>
	<path fill="#4E9EF4" d="M30.938,27.005h-9c-0.313,0-0.563,0.253-0.563,0.563c0,0.312,0.25,0.563,0.563,0.563h9
		c0.309,0,0.563-0.252,0.563-0.563C31.5,27.258,31.246,27.005,30.938,27.005z"/>
	<path fill="#4E9EF4" d="M30.938,23.629h-9c-0.313,0-0.563,0.254-0.563,0.563c0,0.313,0.25,0.563,0.563,0.563h9
		c0.309,0,0.563-0.251,0.563-0.563C31.5,23.883,31.246,23.629,30.938,23.629z"/>
	<path fill="#4E9EF4" d="M30.938,16.879H9.563C9.252,16.879,9,17.131,9,17.442c0,0.311,0.252,0.563,0.563,0.563h21.375
		c0.31,0,0.563-0.252,0.563-0.563C31.501,17.131,31.246,16.879,30.938,16.879z"/>
	<path fill="#4E9EF4" d="M30.938,20.255H9.563C9.252,20.255,9,20.508,9,20.817c0,0.312,0.252,0.563,0.563,0.563h21.375
		c0.31,0,0.563-0.252,0.563-0.563C31.5,20.508,31.246,20.255,30.938,20.255z"/>
	<path fill="#4E9EF4" d="M10.125,14.625H18c0.623,0,1.125-0.502,1.125-1.125V5.629c0-0.623-0.502-1.126-1.125-1.126h-7.875
		C9.503,4.505,9,5.008,9,5.629V13.5C9,14.122,9.503,14.625,10.125,14.625z M11.25,6.75h5.625v5.625H11.25V6.75z"/>
</g>
</svg>
