<?xml version="1.0" encoding="utf-8"?>
<!-- Generator: Adobe Illustrator 16.0.0, SVG Export Plug-In . SVG Version: 6.00 Build 0)  -->
<!DOCTYPE svg PUBLIC "-//W3C//DTD SVG 1.1//EN" "http://www.w3.org/Graphics/SVG/1.1/DTD/svg11.dtd">
<svg version="1.1" id="Capa_1" xmlns="http://www.w3.org/2000/svg" xmlns:xlink="http://www.w3.org/1999/xlink" x="0px" y="0px"
	 width="32px" height="32px" viewBox="0 0 25 25" enable-background="new 0 0 25 25" xml:space="preserve">
<g>
	<path fill="#76C4E2" d="M1.625,5.162C0.797,5.599,0.345,6.438,0.383,7.352c0.163,3.974-0.022,7.961-0.377,11.921
		c-0.074,0.823,0.576,1.364,1.372,1.151c0.851-0.23,1.567-1.082,1.646-1.961c0.378-4.222,0.522-8.449,0.347-12.686
		C3.333,4.875,2.206,4.857,1.625,5.162z"/>
	<path fill="#76C4E2" d="M15.617,16.271c-1.479-0.667-2.538-0.881-2.538-0.881c-0.748-0.108-1.495-0.115-2.233-0.045
		c0.852-1.207,1.491-2.542,1.771-4.028C13.234,8.04,10.571,5.812,7.87,4.65C6.388,4.014,4.436,7.022,6.143,7.756
		c1.782,0.767,3.712,2.084,3.484,4.187c-0.078,0.722-0.546,1.542-1.032,2.196c-0.824,1.105-1.856,2.011-2.939,2.853
		C5.1,17.424,4.66,18.211,4.788,18.932c0.159,0.9,1.069,0.924,1.745,0.618c1.778-0.808,3.693-1.253,5.646-0.923
		c1.859,0.309,1.712,0.752,1.712,0.752S17.34,16.949,15.617,16.271z"/>
	<path fill="#76C4E2" d="M23.755,9.99c-0.788-0.737-1.829-1.024-2.915-1.065c0.461-0.892,0.648-1.857,0.295-2.836
		c-0.76-2.093-3.951-1.591-5.57-1.25c-1.598,0.335-2.463,3.572-0.272,3.111c0.72-0.151,1.423-0.232,2.159-0.184
		c0.229,0.017,0.453,0.103,0.665,0.187c0.022,0.013,0.141,0.115,0.165,0.156c0.005,0.008,0.007,0.015,0.01,0.021
		c-0.002,0.022-0.005,0.043-0.006,0.06c0,0-0.002,0-0.002,0.001c0.003-0.018,0.005-0.037,0.008-0.057
		c-0.008,0.028-0.015,0.053-0.018,0.074C18.255,8.23,18.23,8.27,18.19,8.345c-0.22,0.403-0.886,1.003-1.399,1.42
		c-0.549,0.443-0.998,1.208-0.866,1.939c0.118,0.666,0.747,0.93,1.358,0.77c0.868-0.228,1.716-0.37,2.617-0.313
		c0.466,0.026,1.072,0.248,1.365,0.464c0.086,0.063,0.164,0.137,0.242,0.209c0.037,0.036,0.063,0.059,0.08,0.075
		c0.002,0.006,0.012,0.022,0.033,0.054c0.079,0.109,0.141,0.228,0.202,0.348c0.024,0.048,0.042,0.079,0.054,0.101
		c0.002,0.011,0.005,0.021,0.01,0.039c0.055,0.183,0.085,0.371,0.104,0.562c-0.011-0.078-0.004,0.231-0.008,0.3
		c-0.008,0.117-0.024,0.234-0.045,0.352c0.035-0.249-0.12,0.399-0.168,0.529c-0.003,0.01-0.006,0.013-0.008,0.017
		c-0.012,0.024-0.025,0.054-0.046,0.093c-0.064,0.125-0.138,0.252-0.214,0.373c0,0.002,0,0.002-0.002,0.004
		c-0.088,0.119-0.186,0.229-0.283,0.338c-0.022,0.018-0.048,0.037-0.084,0.07c-0.036,0.031-0.137,0.104-0.205,0.154
		c-0.174,0.088-0.436,0.208-0.436,0.219c-0.107,0.033-0.217,0.06-0.328,0.087c-0.017,0.003-0.028,0.003-0.04,0.007
		c-0.058,0.005-0.114,0.012-0.171,0.014c-0.649,0.034-1.132-0.127-1.853-0.51c-1.41-0.74-3.38,2.237-1.728,3.109
		c3.577,1.881,7.564-1.01,8.439-4.607C25.209,12.935,25.029,11.185,23.755,9.99z M18.299,8.186c0-0.002,0-0.002,0-0.003
		c-0.004-0.01-0.006-0.027-0.006-0.05C18.319,8.186,18.308,8.212,18.299,8.186z"/>
</g>
</svg>
