<?xml version="1.0" encoding="utf-8"?>
<!-- Generator: Adobe Illustrator 16.0.0, SVG Export Plug-In . SVG Version: 6.00 Build 0)  -->
<!DOCTYPE svg PUBLIC "-//W3C//DTD SVG 1.1//EN" "http://www.w3.org/Graphics/SVG/1.1/DTD/svg11.dtd">
<svg version="1.1" id="Capa_1" xmlns="http://www.w3.org/2000/svg" xmlns:xlink="http://www.w3.org/1999/xlink" x="0px" y="0px"
	 width="25px" height="25px" viewBox="0 0 29.496 18.811" enable-background="new 0 0 29.496 18.811" xml:space="preserve">
<g>
	<path fill="#FFF3E1" d="M1.918,0.748C0.94,1.263,0.407,2.253,0.452,3.331c0.192,4.689-0.026,9.393-0.445,14.065
		c-0.087,0.972,0.68,1.609,1.619,1.358c1.004-0.271,1.849-1.277,1.941-2.313c0.446-4.981,0.616-9.969,0.41-14.967
		C3.933,0.41,2.603,0.388,1.918,0.748z"/>
	<path fill="#FFF3E1" d="M18.425,13.856c-1.745-0.788-2.994-1.04-2.994-1.04c-0.882-0.128-1.763-0.136-2.634-0.053
		c1.005-1.424,1.759-2.999,2.089-4.752c0.729-3.868-2.414-6.497-5.601-7.867C7.537-0.607,5.233,2.943,7.248,3.809
		c2.102,0.904,4.38,2.459,4.111,4.94c-0.092,0.851-0.644,1.819-1.218,2.591c-0.972,1.304-2.19,2.373-3.468,3.365
		c-0.656,0.509-1.175,1.438-1.024,2.289c0.188,1.062,1.262,1.089,2.059,0.729c2.098-0.952,4.358-1.478,6.661-1.089
		c2.194,0.365,2.019,0.888,2.019,0.888S20.458,14.655,18.425,13.856z"/>
	<path fill="#FFF3E1" d="M28.027,6.444c-0.929-0.87-2.158-1.208-3.439-1.257c0.543-1.052,0.765-2.191,0.347-3.347
		c-0.896-2.469-4.661-1.877-6.572-1.474c-1.885,0.396-2.905,4.214-0.321,3.67c0.85-0.178,1.678-0.274,2.547-0.217
		c0.271,0.02,0.535,0.121,0.785,0.221c0.027,0.015,0.166,0.136,0.195,0.184c0.006,0.01,0.008,0.018,0.012,0.024
		c-0.002,0.027-0.006,0.051-0.008,0.071c0,0-0.001,0-0.001,0.002c0.003-0.021,0.005-0.044,0.009-0.067
		c-0.01,0.033-0.018,0.062-0.022,0.087c-0.021,0.027-0.05,0.074-0.097,0.162c-0.26,0.475-1.045,1.183-1.651,1.675
		c-0.647,0.523-1.177,1.425-1.022,2.288c0.139,0.785,0.881,1.097,1.602,0.908c1.025-0.269,2.025-0.437,3.088-0.369
		c0.55,0.031,1.266,0.293,1.611,0.548c0.102,0.074,0.193,0.161,0.285,0.247c0.045,0.042,0.074,0.07,0.096,0.089
		c0.002,0.007,0.013,0.026,0.039,0.063c0.093,0.128,0.166,0.27,0.238,0.411c0.028,0.056,0.049,0.094,0.063,0.119
		c0.003,0.012,0.006,0.024,0.012,0.045c0.064,0.216,0.1,0.438,0.122,0.663c-0.013-0.092-0.004,0.273-0.009,0.354
		c-0.01,0.138-0.029,0.276-0.053,0.414c0.041-0.293-0.142,0.472-0.199,0.626c-0.003,0.01-0.006,0.014-0.008,0.019
		c-0.014,0.029-0.03,0.063-0.055,0.109c-0.076,0.148-0.162,0.297-0.252,0.441c0,0.001,0,0.001-0.003,0.004
		c-0.103,0.14-0.218,0.27-0.334,0.398c-0.026,0.021-0.056,0.045-0.099,0.083c-0.042,0.038-0.161,0.122-0.242,0.183
		c-0.204,0.104-0.514,0.245-0.514,0.258c-0.127,0.039-0.256,0.07-0.387,0.102c-0.019,0.004-0.033,0.004-0.047,0.008
		c-0.068,0.006-0.134,0.014-0.201,0.016c-0.767,0.041-1.336-0.15-2.186-0.601c-1.664-0.874-3.988,2.64-2.038,3.668
		c4.22,2.219,8.925-1.191,9.957-5.436C29.742,9.919,29.53,7.854,28.027,6.444z M21.589,4.315c0-0.002,0-0.002,0-0.004
		c-0.004-0.012-0.006-0.032-0.006-0.059C21.614,4.315,21.6,4.346,21.589,4.315z"/>
</g>
</svg>
