<?xml version="1.0" encoding="utf-8"?>
<!-- Generator: Adobe Illustrator 16.0.0, SVG Export Plug-In . SVG Version: 6.00 Build 0)  -->
<!DOCTYPE svg PUBLIC "-//W3C//DTD SVG 1.1//EN" "http://www.w3.org/Graphics/SVG/1.1/DTD/svg11.dtd">
<svg version="1.1" id="Capa_1" xmlns="http://www.w3.org/2000/svg" xmlns:xlink="http://www.w3.org/1999/xlink" x="0px" y="0px"
	 width="64px" height="64px" viewBox="0 0 64 64" enable-background="new 0 0 64 64" xml:space="preserve">
<g>
	<path fill="#FFEECF" d="M41.203,35.723l4.752,2.248c0.677,0.32,1.214,0.842,1.566,1.484c2.828-2.855,5.89-7.345,8.457-12.733
		C60.92,16.357,62.16,6.645,58.748,5.03c-3.412-1.615-10.184,5.479-15.124,15.844c-2.567,5.386-4.125,10.584-4.56,14.571
		c0.207-0.037,0.416-0.064,0.631-0.064C40.221,35.382,40.727,35.496,41.203,35.723z"/>
	<path fill="#FFEECF" d="M36.975,44.598l4.752,2.25c0.35,0.164,0.717,0.242,1.08,0.242c0.827,0,1.605-0.426,2.084-1.136
		c-2.83-1.962-5.916-3.449-9.178-4.529C35.246,42.643,35.775,44.031,36.975,44.598z"/>
	<path fill="#FFEECF" d="M37.613,37.516c0.449,0.148,0.89,0.31,1.33,0.476c2.302,0.866,4.496,1.969,6.632,3.196
		c0.421,0.242,0.841,0.485,1.258,0.736c0.19-0.584,0.159-1.193-0.063-1.732c-0.23-0.559-0.653-1.039-1.242-1.317l-4.752-2.249
		c-0.35-0.165-0.717-0.244-1.08-0.244c-0.25,0-0.493,0.041-0.729,0.112C38.419,36.659,37.947,37.021,37.613,37.516z"/>
	<path fill="#FFEECF" d="M36.236,40.281c1.242,0.418,2.459,0.892,3.648,1.426c0.743,0.334,1.479,0.684,2.199,1.066
		c1.167,0.619,2.3,1.309,3.398,2.06l0.836-1.754c-0.631-0.381-1.268-0.749-1.908-1.11c-1.73-0.975-3.503-1.865-5.348-2.597
		c-0.672-0.267-1.354-0.505-2.047-0.726L36.236,40.281z"/>
	<path fill="#FFEECF" d="M11.339,37.089c7.217-4.681-1.15-11.938-4.044-15.721c-1.158-1.514-3.766-0.023-2.59,1.514
		c2.681,3.505,10.242,8.883,3.364,12.666c-2.035,1.119-3.382,3.158-1.904,5.326c1.498,2.196,5.658,2.394,7.989,2.735
		c1.627,0.238,3.332,0.718,4.89,1.34c-0.632,0.283-1.305,0.509-1.951,0.75c-3.255,1.214-10.51,4.107-7.946,9.021
		c2.094,4.012,7.936,3.936,12.495,4.021c-0.055-0.093-0.1-0.197-0.131-0.318c-0.248-0.973,0.552-1.524,2.487-2.592
		c-2.925-0.257-5.858-0.179-8.764-0.694c-5.846-1.037-2.094-4.644,1.197-5.988c1.735-0.707,8.42-2.234,6.153-5.44
		c-1.366-1.933-5.02-2.39-7.061-2.905c-1.404-0.354-2.906-0.447-4.328-0.75C7.836,39.339,9.232,38.456,11.339,37.089z"/>
	<path fill="#FFEECF" d="M25.355,56.229c-2.183,1.191-4,2.154-2.048,2.154c0.531,0,1.344-0.072,2.5-0.229
		c1.572-0.215,3.781-0.586,6.806-1.154c16.713-3.141,4.027-11.359,4.027-11.359c-0.851-0.33-1.662-0.479-2.42-0.479
		c-4.141,0-6.646,4.415-4.647,7.5C30.163,53.574,27.571,55.02,25.355,56.229z"/>
</g>
</svg>
