<?xml version="1.0" encoding="utf-8"?>
<!-- Generator: Adobe Illustrator 16.0.0, SVG Export Plug-In . SVG Version: 6.00 Build 0)  -->
<!DOCTYPE svg PUBLIC "-//W3C//DTD SVG 1.1//EN" "http://www.w3.org/Graphics/SVG/1.1/DTD/svg11.dtd">
<svg version="1.1" id="图层_1" xmlns="http://www.w3.org/2000/svg" xmlns:xlink="http://www.w3.org/1999/xlink" x="0px" y="0px"
	 width="36px" height="36px" viewBox="0 0 36 36" enable-background="new 0 0 36 36" xml:space="preserve">
<path fill="#0084C6" d="M9.925,7.346l-7.687,9.341c0,0-0.292,4.962,8.173,6.811c0,0,6.519,0.389,7.978,6.129
	c0,0,6.713-7.686,7.881-9.826c0,0,0.194-4.184-6.616-5.936l-2.334,0.973c0,0,4.282,1.07,1.459,5.156c0,0-1.557,2.822-7.2,1.946
	c0,0-3.794-0.583-2.043-4.281c0,0,0.779-2.627,5.06-2.822c0,0-0.682-1.07-0.39-2.335C14.206,12.503,10.703,10.46,9.925,7.346z"/>
<path fill="#0084C6" d="M16.93,18.146l0.681-0.292c0,0,0.681-3.698-4.476-0.973h-1.265l-0.583,0.292l0.875,0.583l-0.389,0.195
	c0,0-0.681-0.486-0.875,0c-0.195,0.487,0.292,0.779,0.292,0.779s-0.779,4.572,4.961,1.361l-0.583-0.486c0,0-3.503,2.725-3.309-0.681
	l2.335,0.39l0.292-0.487l-2.043-0.487l0.098-0.583l2.433,0.583l0.195-0.389l-2.044-0.389C13.524,17.563,16.93,15.13,16.93,18.146z"
	/>
<rect x="29.579" y="15.811" fill="#0084C6" width="3.405" height="10.022"/>
<path fill="#0084C6" d="M23.352,14.546v-3.6l-6.422,1.849c0,0-1.167-0.39-0.389-2.141l6.616-2.433c0,0,1.752-1.557,2.238,1.557
	l2.433,6.324l0.194,7.882c0,0-0.584,0.682-1.459,0.584l-3.017,0.096l-0.682,0.974l4.865,0.098c0,0,1.07-0.389,1.362-1.751
	l-0.098-8.271l-2.529-7.395c0,0-0.584-2.822-3.503-1.265l-7.005,2.432c0,0-3.113,3.601,1.265,4.67l3.503-1.167
	c0,0,1.361-0.681,1.361,0.778L23.352,14.546z"/>
</svg>
