<?xml version="1.0" encoding="utf-8"?>
<!-- Generator: Adobe Illustrator 16.0.0, SVG Export Plug-In . SVG Version: 6.00 Build 0)  -->
<!DOCTYPE svg PUBLIC "-//W3C//DTD SVG 1.1//EN" "http://www.w3.org/Graphics/SVG/1.1/DTD/svg11.dtd">
<svg version="1.1" id="Layer_1" xmlns="http://www.w3.org/2000/svg" xmlns:xlink="http://www.w3.org/1999/xlink" x="0px" y="0px"
	 width="32px" height="32px" viewBox="0 0 19.176 31.861" enable-background="new 0 0 19.176 31.861" xml:space="preserve">
<path fill="#D3AF1A" d="M11.302,18.24h0.792v-1.093h-0.857c-0.022-0.484-0.033-0.913-0.038-1.25l4.309,2.343l-0.823-6.714
	l4.492-4.563l-6.439-0.862l-3.127-6.06L9.587,0L9.568,0.036L6.44,6.096L0,6.958l4.493,4.563l-0.824,6.713l4.309-2.342
	c-0.005,0.337-0.016,0.766-0.038,1.25H7.082v1.092h0.792c-0.201,2.714-0.773,6.205-2.391,6.205H3.004v7.417h6.563v0.005h6.604
	v-7.417h-2.479C12.076,24.445,11.503,20.953,11.302,18.24z"/>
</svg>
