<?xml version="1.0" encoding="utf-8"?>
<!-- Generator: Adobe Illustrator 16.0.0, SVG Export Plug-In . SVG Version: 6.00 Build 0)  -->
<!DOCTYPE svg PUBLIC "-//W3C//DTD SVG 1.1//EN" "http://www.w3.org/Graphics/SVG/1.1/DTD/svg11.dtd">
<svg version="1.1" id="Layer_1" xmlns="http://www.w3.org/2000/svg" xmlns:xlink="http://www.w3.org/1999/xlink" x="0px" y="0px"
	 width="32px" height="32px" viewBox="0 0 112 112" enable-background="new 0 0 112 112" xml:space="preserve">
<path fill="#32493D" d="M74.666,112H0c3.626-13.949,11.545-20.432,21.645-23.17c4.676,2.59,10.02,4.061,15.685,4.061
	c5.67,0,11.013-1.475,15.688-4.061C63.126,91.564,71.041,98.051,74.666,112z M9.333,56c0-15.465,12.535-28,28-28s28,12.535,28,28
	s-12.535,28-28,28S9.333,71.465,9.333,56z M18.615,65.334C22.061,72.227,29.105,77,37.333,77s15.274-4.773,18.718-11.666H18.615z
	 M112,0v32.522H74.773L65.334,42L65.291,0H112z M93.334,18.667H74.666v4.667h18.668V18.667z M102.666,9.333h-28V14h28V9.333z"/>
</svg>
