<?xml version="1.0" encoding="utf-8"?>
<!-- Generator: Adobe Illustrator 16.0.0, SVG Export Plug-In . SVG Version: 6.00 Build 0)  -->
<!DOCTYPE svg PUBLIC "-//W3C//DTD SVG 1.1//EN" "http://www.w3.org/Graphics/SVG/1.1/DTD/svg11.dtd">
<svg version="1.1" id="Capa_1" xmlns="http://www.w3.org/2000/svg" xmlns:xlink="http://www.w3.org/1999/xlink" x="0px" y="0px"
	 width="36px" height="36px" viewBox="0 0 36 36" enable-background="new 0 0 36 36" xml:space="preserve">
<g>
	<path fill="#FFFFFF" d="M18,3.75C10.13,3.75,3.75,10.13,3.75,18c0,3.43,1.212,6.576,3.23,9.034
		c0.312-2.493,2.802-4.602,6.294-5.601c1.276,1.189,2.924,1.91,4.726,1.91c1.76,0,3.375-0.686,4.638-1.824
		c3.522,1.087,5.96,3.318,6.039,5.913C30.898,24.92,32.25,21.618,32.25,18C32.25,10.13,25.87,3.75,18,3.75z M18,21.656
		c-0.91,0-1.767-0.25-2.528-0.683c-1.834-1.044-3.097-3.18-3.097-5.646C12.375,11.839,14.898,9,18,9s5.625,2.839,5.625,6.328
		c0,2.504-1.303,4.666-3.182,5.691C19.703,21.424,18.876,21.656,18,21.656z"/>
</g>
</svg>
