<?xml version="1.0" standalone="no"?><!DOCTYPE svg PUBLIC "-//W3C//DTD SVG 1.1//EN" "http://www.w3.org/Graphics/SVG/1.1/DTD/svg11.dtd">
<svg t="1491542379671" class="icon"  width="36px" height="36px" viewBox="0 0 1024 1024" version="1.1" xmlns="http://www.w3.org/2000/svg" p-id="6143" xmlns:xlink="http://www.w3.org/1999/xlink">
	<defs>
		<style type="text/css"></style>
	</defs>
	<path d="M556.369318 494.254682h-37.845836a8.9088 8.9088 0 0 0 0 17.8176h37.845836c4.891106 0 8.896753-3.987576 8.902776-8.914823 0-4.897129-4.005647-8.902776-8.902776-8.902777zM565.127529 270.763671c-69.330824-1.042071-132.860988 27.949176-189.060517 86.395482-31.840376 33.165553-53.055247 67.764706-63.463906 86.672565l252.530447-0.771012V270.763671zM591.691294 272.564706v170.399623c96.695718-0.325271 186.771576-0.6144 235.483859-0.752941a351.912659 351.912659 0 0 0-47.194353-69.24047c-50.820518-58.036706-114.133835-91.780518-188.289506-100.406212z" fill="#C777D8" p-id="6144"></path>
	<path d="M871.309553 12.047059H157.087624C78.528753 12.047059 14.245647 76.324141 14.245647 154.889035v714.215906C14.245647 947.675859 78.528753 1011.952941 157.087624 1011.952941H871.303529c78.564894 0 142.841976-64.277082 142.841977-142.841976V154.889035C1014.151529 76.324141 949.874447 12.047059 871.309553 12.047059zM329.228047 732.515388c-48.067765 0-87.208659-39.110776-87.208659-87.196612s39.134871-87.208659 87.208659-87.208658 87.178541 39.128847 87.178541 87.208658-39.110776 87.196612-87.178541 87.196612z m387.547859 0c-48.067765 0-87.178541-39.110776-87.178541-87.196612s39.110776-87.208659 87.178541-87.208658c48.097882 0 87.208659 39.128847 87.208659 87.208658s-39.104753 87.196612-87.208659 87.196612z m105.628612-90.479435c-1.722729-56.771765-48.441224-102.406024-105.622589-102.406024-57.307859 0-104.026353 45.790871-105.622588 102.713224H434.2784c-1.602259-56.585035-48.103906-102.147012-105.038306-102.147012-56.970541 0-103.472188 45.555953-105.026259 102.147012-43.098353 0-3.096094-0.662588-12.239811-0.662588-136.264282 0-106.917647-197.559718-3.849036-197.559718 4.879059 0 28.575624-0.090353 64.234918-0.186729 0.060235-0.126494 0.090353-0.246965 0.156612-0.385506 1.048094-2.294965 26.178259-57.247624 76.956611-110.381177 68.367059-71.517365 150.552094-105.086494 237.730636-97.09327 86.226824 7.932988 161.858259 48.085835 220.672 114.368753 100.857976 113.645929 157.256282 291.593035 14.528753 291.593035z" fill="#C777D8" p-id="6145"></path>
	<path d="M329.222024 645.312753m-45.778824 0a45.778824 45.778824 0 1 0 91.557647 0 45.778824 45.778824 0 1 0-91.557647 0Z" fill="#C777D8" p-id="6146"></path>
	<path d="M716.775906 599.521882c-25.220518 0-45.760753 20.552282-45.760753 45.790871 0 25.250635 20.540235 45.778824 45.760753 45.778823 25.250635 0 45.790871-20.522165 45.79087-45.778823 0-25.232565-20.534212-45.790871-45.79087-45.790871z" fill="#C777D8" p-id="6147"></path>
</svg>