<?xml version="1.0" encoding="utf-8"?>
<!-- Generator: Adobe Illustrator 16.0.0, SVG Export Plug-In . SVG Version: 6.00 Build 0)  -->
<!DOCTYPE svg PUBLIC "-//W3C//DTD SVG 1.1//EN" "http://www.w3.org/Graphics/SVG/1.1/DTD/svg11.dtd">
<svg version="1.1" id="Layer_1" xmlns="http://www.w3.org/2000/svg" xmlns:xlink="http://www.w3.org/1999/xlink" x="0px" y="0px"
	 width="32px" height="32px" viewBox="0 0 96 96" enable-background="new 0 0 96 96" xml:space="preserve">
<path fill="#B70B0B" d="M84.673,33.062L73.938,33.03l5.586-5.55l4.025-0.008c1.941,0.004,3.518-1.563,3.524-3.504
	c0.006-1.941-1.563-3.518-3.503-3.522l-7.441-0.004L57.027,1.227L37.811,20.279L17.912,20.27c-5.253-0.016-9.925,2.977-9.925,10.146
	l-0.062,54.51c-0.016,5.407,4.273,9.824,9.682,9.84l60.586,0.008c5.406,0.017,9.861-4.201,9.877-9.609l0.006-48.578
	C88.081,34.644,86.611,33.067,84.673,33.062z M57.008,7.668L74.893,25.66l-7.396,7.342l-6.056-0.009
	c-0.352-5.563-4.957-9.98-10.613-9.996c-5.656-0.018-10.287,4.361-10.67,9.923l-8.538-0.016L57.008,7.668z M17.891,27.296
	l12.875,0.028l-5.585,5.562l-7.307-0.021c-1.535-0.004-2.78-1.257-2.776-2.792C15.103,28.535,16.355,27.292,17.891,27.296z
	 M81.098,54.366l-7.164-0.021c-4.365-0.015-7.912,3.516-7.927,7.881c-0.013,4.362,3.515,7.912,7.88,7.926l7.153,0.011l-0.034,14.979
	c-0.005,1.534-1.258,2.66-2.793,2.656l-60.586-0.06c-1.535-0.007-2.781-1.259-2.775-2.794l-0.067-45.494l66.335-0.004L81.098,54.366
	z"/>
</svg>
