<?xml version="1.0" standalone="no"?><!DOCTYPE svg PUBLIC "-//W3C//DTD SVG 1.1//EN" "http://www.w3.org/Graphics/SVG/1.1/DTD/svg11.dtd"><svg t="1491542606812" class="icon" style="" viewBox="0 0 1024 1024" version="1.1" xmlns="http://www.w3.org/2000/svg" p-id="8527" xmlns:xlink="http://www.w3.org/1999/xlink" width="36" height="36"><defs><style type="text/css"></style></defs><path d="M829.030 98.207v66.207h-115.862v-66.207h-397.241v66.207h-115.862v-66.207h-132.413v182.069h893.793v-182.069z" fill="#F05565" p-id="8528"></path><path d="M200.064 280.276h-132.413v711.724h893.793v-711.724h-645.518z" fill="#EFEBDE" p-id="8529"></path><path d="M680.064 396.138h-480v480h628.966v-480h-148.966zM531.099 429.241h115.862v115.862h-115.862v-115.862zM646.961 694.069h-115.862v-115.862h115.862v115.862zM382.133 578.207h115.862v115.862h-115.862v-115.862zM382.133 429.241h115.862v115.862h-115.862v-115.862zM233.167 429.241h115.862v115.862h-115.862v-115.862zM233.167 578.207h115.862v115.862h-115.862v-115.862zM349.030 843.034h-115.862v-115.862h115.862v115.862zM497.995 843.034h-115.862v-115.862h115.862v115.862zM646.961 843.034h-115.862v-115.862h115.862v115.862zM795.926 843.034h-115.862v-115.862h115.862v115.862zM795.926 694.069h-115.862v-115.862h115.862v115.862zM680.064 545.103v-115.862h115.862v115.862h-115.862z" fill="#D5D0BB" p-id="8530"></path><path d="M200.064 32h115.862v132.413h-115.862zM713.167 32h115.862v132.413h-115.862z" fill="#36495E" p-id="8531"></path><path d="M382.133 578.207h115.862v115.862h-115.862z" fill="#7F6E5D" p-id="8532"></path><path d="M644.246 834.577l-0.116 0.116-32.921 120.662 76.916-76.916z" fill="#EDDCC7" p-id="8533"></path><path d="M962.866 603.697l-20.64-20.64c-5.946-5.945-14.158-9.622-23.23-9.622s-17.285 3.677-23.23 9.622l-59.288 59.288 43.879 43.879 82.51-82.527z" fill="#D75A4A" p-id="8534"></path><path d="M836.477 642.328l43.862 43.879-192.199 192.248-43.862-43.879z" fill="#F29C21" p-id="8535"></path><path d="M737.746 928.326l0.132-0.132-49.754-49.754-76.916 76.916-2.201 8.077z" fill="#D6C4B1" p-id="8536"></path><path d="M930.111 735.978l59.288-59.288c5.945-5.946 9.622-14.158 9.622-23.23s-3.677-17.285-9.622-23.23l-26.516-26.516-82.51 82.51 49.738 49.754z" fill="#A34740" p-id="8537"></path><path d="M737.863 928.21l-49.754-49.754 192.232-192.216 49.754 49.754z" fill="#E18C25" p-id="8538"></path><path d="M597.305 991.686c-0.011 0-0.023 0-0.037 0-9.132 0-16.536-7.403-16.536-16.536 0-4.58 1.862-8.723 4.869-11.718l36.531-36.531c2.994-2.994 7.133-4.847 11.702-4.847 9.14 0 16.55 7.409 16.55 16.55 0 4.57-1.852 8.708-4.847 11.702l-36.53 36.53c-2.977 2.995-7.102 4.85-11.658 4.85-0.016 0-0.031 0-0.047 0z" fill="#5E5E5E" p-id="8539"></path></svg>